<svg width="39" height="39" viewBox="0 0 39 39" fill="none" xmlns="http://www.w3.org/2000/svg">
<g clip-path="url(#clip0_547_142)">
<path fill-rule="evenodd" clip-rule="evenodd" d="M2.03125 37.7813C2.03125 37.1082 2.57691 36.5625 3.25 36.5625L35.75 36.5625C36.4231 36.5625 36.9688 37.1082 36.9688 37.7813C36.9688 38.4543 36.4231 39 35.75 39L3.25 39C2.57691 39 2.03125 38.4543 2.03125 37.7813ZM6.90625 27.2711L6.90625 12.5414C6.90622 11.8268 6.9062 11.2102 6.95204 10.7045C7.00053 10.1696 7.10786 9.63983 7.39609 9.14063C7.717 8.58488 8.17856 8.12321 8.73438 7.80227C9.23359 7.51416 9.76328 7.40675 10.2982 7.35833C10.804 7.3125 11.4205 7.3125 12.1351 7.3125L12.2399 7.3125C12.9545 7.3125 13.571 7.3125 14.0768 7.35833C14.6117 7.40675 15.1414 7.51416 15.6406 7.80227C16.1964 8.12321 16.658 8.58488 16.979 9.14063C17.2671 9.63983 17.3745 10.1696 17.4229 10.7045C17.4688 11.2102 17.4688 11.8268 17.4688 12.5414L17.4688 27.2711C17.4688 27.9858 17.4688 28.6022 17.4229 29.1081C17.3745 29.643 17.2671 30.1727 16.979 30.6719C16.658 31.2277 16.1964 31.6893 15.6406 32.0102C15.1414 32.2984 14.6117 32.4057 14.0768 32.4542C13.571 32.5 12.9545 32.5 12.2399 32.5L12.1351 32.5C11.4205 32.5 10.804 32.5 10.2982 32.4542C9.76328 32.4057 9.23359 32.2984 8.73438 32.0102C8.17856 31.6893 7.717 31.2277 7.39609 30.6719C7.10786 30.1727 7.00053 29.643 6.95204 29.1081C6.9062 28.6022 6.90622 27.9858 6.90625 27.2711ZM9.3796 28.888C9.41275 29.2539 9.4687 29.3867 9.50703 29.4531C9.614 29.6384 9.76786 29.7922 9.95313 29.8992C10.0195 29.9376 10.1524 29.9935 10.5182 30.0267C10.9008 30.0613 11.4057 30.0625 12.1875 30.0625C12.9693 30.0625 13.4742 30.0613 13.8568 30.0267C14.2227 29.9935 14.3555 29.9376 14.4219 29.8992C14.6071 29.7922 14.761 29.6384 14.868 29.4531C14.9063 29.3867 14.9623 29.2539 14.9954 28.888C15.0301 28.5054 15.0313 28.0006 15.0313 27.2188L15.0313 12.5938C15.0313 11.812 15.0301 11.3071 14.9954 10.9244C14.9623 10.5586 14.9063 10.4258 14.868 10.3594C14.761 10.1741 14.6071 10.0202 14.4219 9.91331C14.3555 9.87496 14.2227 9.81906 13.8568 9.78591C13.4742 9.75114 12.9693 9.75 12.1875 9.75C11.4057 9.75 10.9008 9.75114 10.5182 9.78591C10.1524 9.81906 10.0195 9.87496 9.95313 9.91331C9.76786 10.0202 9.614 10.1741 9.50703 10.3594C9.4687 10.4258 9.41275 10.5586 9.3796 10.9244C9.34492 11.3071 9.34375 11.812 9.34375 12.5938L9.34375 27.2188C9.34375 28.0006 9.34492 28.5054 9.3796 28.888ZM21.5313 27.2711L21.5313 17.4164C21.5313 16.7018 21.5313 16.0852 21.5771 15.5794C21.6255 15.0446 21.7329 14.5148 22.021 14.0156C22.342 13.4599 22.8036 12.9982 23.3594 12.6773C23.8586 12.3892 24.3883 12.2818 24.9231 12.2333C25.429 12.1875 26.0455 12.1875 26.7602 12.1875L26.8648 12.1875C27.5795 12.1875 28.196 12.1875 28.7019 12.2333C29.2367 12.2818 29.7664 12.3892 30.2656 12.6773C30.8214 12.9982 31.283 13.4599 31.604 14.0156C31.8921 14.5148 31.9995 15.0446 32.0479 15.5794C32.0938 16.0852 32.0938 16.7018 32.0938 17.4164L32.0938 27.2712C32.0938 27.9858 32.0938 28.6022 32.0479 29.1081C31.9995 29.643 31.8921 30.1727 31.604 30.6719C31.283 31.2277 30.8214 31.6893 30.2656 32.0102C29.7664 32.2984 29.2367 32.4057 28.7019 32.4542C28.196 32.5 27.5795 32.5 26.8648 32.5L26.7602 32.5C26.0455 32.5 25.429 32.5 24.9231 32.4542C24.3883 32.4057 23.8586 32.2984 23.3594 32.0102C22.8036 31.6893 22.342 31.2277 22.021 30.6719C21.7329 30.1727 21.6255 29.643 21.5771 29.1081C21.5313 28.6022 21.5313 27.9858 21.5313 27.2711ZM24.0047 28.888C24.0378 29.2539 24.0937 29.3867 24.1321 29.4531C24.239 29.6384 24.3929 29.7922 24.5781 29.8992C24.6446 29.9376 24.7774 29.9935 25.1431 30.0267C25.5258 30.0613 26.0307 30.0625 26.8125 30.0625C27.5943 30.0625 28.0992 30.0613 28.4819 30.0267C28.8477 29.9935 28.9804 29.9376 29.0469 29.8992C29.2321 29.7922 29.386 29.6384 29.4929 29.4531C29.5313 29.3867 29.5872 29.2539 29.6203 28.888C29.6551 28.5054 29.6563 28.0006 29.6563 27.2188L29.6563 17.4688C29.6563 16.687 29.6551 16.1821 29.6203 15.7994C29.5872 15.4336 29.5313 15.3008 29.4929 15.2344C29.386 15.0491 29.2321 14.8952 29.0469 14.7883C28.9804 14.75 28.8477 14.6941 28.4819 14.6609C28.0992 14.6261 27.5943 14.625 26.8125 14.625C26.0307 14.625 25.5258 14.6261 25.1431 14.6609C24.7774 14.6941 24.6446 14.75 24.5781 14.7883C24.3929 14.8952 24.239 15.0491 24.1321 15.2344C24.0937 15.3008 24.0378 15.4336 24.0047 15.7994C23.9699 16.1821 23.9688 16.687 23.9688 17.4688L23.9688 27.2188C23.9688 28.0006 23.9699 28.5054 24.0047 28.888Z" fill="white"/>
</g>
<defs>
<clipPath id="clip0_547_142">
<rect width="39" height="39" fill="white" transform="translate(1.70475e-06 39) rotate(-90)"/>
</clipPath>
</defs>
</svg>
