<svg width="43" height="41" viewBox="0 0 43 41" fill="none" xmlns="http://www.w3.org/2000/svg">
<g clip-path="url(#clip0_321_1491)">
<path d="M20.9705 0H20.9737V0.000684172C23.039 0.00102626 25.035 0.293167 26.9191 0.837426C27.2204 0.924316 27.5245 1.0201 27.8307 1.12341C29.3802 1.64748 30.845 2.34295 32.2017 3.18584C32.2972 3.24503 32.3256 3.36886 32.2654 3.46225C32.2591 3.47149 32.2518 3.48072 32.2444 3.48893L30.7439 5.36972C30.6774 5.45319 30.5563 5.47098 30.4681 5.41248L30.4646 5.41043C30.0832 5.1802 29.6892 4.9623 29.2847 4.75739C28.877 4.55145 28.4627 4.36057 28.0424 4.18645L28.0417 4.1861C25.87 3.28539 23.4803 2.78731 20.9702 2.78731H20.9681V2.78663C18.4675 2.78663 16.0837 3.283 13.9162 4.17926C13.5621 4.32567 13.2146 4.48235 12.8752 4.64826C11.123 5.50484 9.53153 6.6327 8.15803 7.97539L8.15663 7.97676L8.14718 7.98531C7.69157 8.43139 7.2601 8.90107 6.85523 9.39231C6.4479 9.88662 6.06612 10.4035 5.71374 10.9399C3.90212 13.6971 2.85092 16.9784 2.85092 20.4998V20.5019H2.85022C2.85022 22.9464 3.35798 25.2767 4.2748 27.3956C4.42458 27.7421 4.58485 28.0815 4.75457 28.4133C5.6308 30.1258 6.78454 31.6819 8.15838 33.0246L8.15978 33.026L8.16748 33.0339C8.6238 33.4796 9.10496 33.9017 9.60781 34.2979C10.1135 34.6964 10.6422 35.0693 11.1913 35.4137C14.0117 37.1847 17.3687 38.2123 20.9705 38.2123H20.9726V38.2134C23.474 38.213 25.857 37.717 28.0245 36.8207C28.379 36.6743 28.7262 36.5177 29.0656 36.3517C30.8177 35.4952 32.4096 34.3673 33.7827 33.0246L33.7845 33.0229L33.795 33.013C34.2499 32.5672 34.681 32.0982 35.0855 31.6077C35.4932 31.1134 35.8746 30.5961 36.227 30.0598C38.039 27.3025 39.0898 24.0213 39.0898 20.5002V20.4968H39.0909C39.0905 19.0193 38.9047 17.5818 38.5544 16.208C38.4963 15.9792 38.4351 15.7572 38.3714 15.5423C38.0348 14.411 37.5851 13.326 37.0368 12.3C36.9892 12.2114 37.0165 12.104 37.097 12.0465L39.0359 10.5479C39.1241 10.4795 39.2525 10.4942 39.3222 10.5807C39.3285 10.5882 39.3337 10.5964 39.3383 10.6047H39.339L39.3404 10.6074L39.3425 10.6115C39.5738 11.0213 39.7925 11.4411 39.9958 11.869C40.1995 12.2973 40.3881 12.7328 40.561 13.1737C41.4522 15.4493 41.9407 17.9198 41.9407 20.5005V20.5026H41.94C41.9397 23.332 41.3525 26.0286 40.2915 28.4803C40.1197 28.8782 39.9342 29.2712 39.7358 29.6581C38.7199 31.644 37.3853 33.4447 35.7987 34.9961L35.7973 34.9974L35.7896 35.0043C35.2605 35.5212 34.703 36.01 34.1201 36.4694C33.5346 36.9309 32.9229 37.3619 32.2885 37.7605C29.0236 39.8102 25.1383 41.0003 20.9702 41.0003H20.9681V40.9997C18.0738 40.9993 15.3153 40.4253 12.8073 39.3881C12.4003 39.2201 11.9982 39.0385 11.6021 38.8445C9.57107 37.8518 7.72866 36.5467 6.14171 34.9961L6.14031 34.9943L6.13051 34.9844C5.60281 34.4679 5.10345 33.924 4.63454 33.3551C4.16283 32.7828 3.72156 32.1848 3.31423 31.5646C1.21742 28.3723 0 24.5744 0 20.5002V20.4978H0.00069987C0.0010498 17.6684 0.588241 14.9721 1.64889 12.52C1.82106 12.1222 2.00653 11.7294 2.20494 11.3419C3.22045 9.35639 4.55545 7.55565 6.14171 6.00429L6.14311 6.00292L6.15221 5.99505C6.68061 5.47885 7.23805 4.99001 7.82 4.53127C8.40579 4.07014 9.01712 3.63877 9.65191 3.24058C12.9178 1.18977 16.8028 0 20.9705 0ZM32.5674 5.57566L38.4358 0.0940736L38.8267 3.79099L43 4.30104L36.7159 10.2537L33.6581 10.5102L21.4566 21.6041L20.3323 20.6575L31.8896 8.85557L32.5674 5.57566ZM20.9705 14.0111H20.9758V14.0118C21.3705 14.0122 21.7548 14.0454 22.1246 14.109C22.1677 14.1165 22.2286 14.1278 22.3056 14.1432H22.3066C22.6145 14.2048 22.9162 14.2879 23.2091 14.3905C23.3155 14.4275 23.3708 14.5417 23.3326 14.6457C23.3253 14.6662 23.3141 14.6847 23.3011 14.7011L23.3015 14.7015L21.6634 16.7554C21.6176 16.8132 21.5448 16.8388 21.4752 16.8299V16.8306L21.4657 16.8293L21.3929 16.821L21.3866 16.82L21.3236 16.8135L21.3184 16.8128C21.2092 16.8036 21.0934 16.7985 20.9705 16.7985H20.9685V16.7974C20.4467 16.7978 19.9484 16.9018 19.4956 17.0892C19.4207 17.1204 19.3479 17.1532 19.2783 17.1871C18.9136 17.3653 18.5812 17.601 18.2932 17.8825L18.2918 17.8839L18.2823 17.8921C18.19 17.9831 18.1025 18.0792 18.0199 18.1795C17.9349 18.2824 17.8551 18.3909 17.7812 18.5031C17.4033 19.0785 17.1843 19.7643 17.1843 20.4998V20.5019H17.1832C17.1836 21.0126 17.2899 21.4994 17.4817 21.9417C17.5135 22.0153 17.5471 22.0864 17.5818 22.1542C17.7641 22.511 18.0056 22.8356 18.2932 23.1168L18.2946 23.1185L18.303 23.1271C18.3961 23.2174 18.4944 23.3036 18.5969 23.384C18.7023 23.4671 18.8132 23.5454 18.928 23.6176C19.5169 23.9867 20.2185 24.2012 20.9705 24.2012H20.9726V24.2019C21.4951 24.2019 21.9934 24.0979 22.4455 23.9104C22.5208 23.8793 22.5932 23.8465 22.6628 23.8126C23.0278 23.634 23.3599 23.3983 23.6476 23.1168L23.6493 23.1151L23.6563 23.1086C23.7074 23.0583 23.7571 23.0073 23.8029 22.957C23.8488 22.9067 23.8967 22.8503 23.9457 22.7894C24.183 22.4952 24.3758 22.1654 24.5129 21.8107C24.5287 21.7693 24.557 21.7358 24.5924 21.7136L27.2393 19.6672C27.3278 19.5988 27.4559 19.6135 27.5259 19.7C27.5504 19.7305 27.564 19.7657 27.5682 19.8016H27.5693L27.571 19.817L27.5717 19.8276L27.5801 19.9132V19.9155H27.5808L27.5885 20.0086V20.0103C27.6008 20.1745 27.6078 20.3377 27.6078 20.4998V20.5019H27.6067C27.6064 21.3971 27.4205 22.2503 27.085 23.0261C27.0311 23.151 26.9719 23.2755 26.9089 23.399C26.5867 24.0281 26.1646 24.5984 25.6632 25.0882L25.6618 25.0896L25.6506 25.0988C25.4854 25.2596 25.3118 25.4125 25.1309 25.5552C24.9455 25.7009 24.7516 25.8377 24.5514 25.9633C23.5177 26.6119 22.2888 26.9885 20.9702 26.9885H20.9681V26.9875C20.0523 26.9871 19.1796 26.8055 18.3863 26.4774C18.2586 26.4248 18.1308 26.3669 18.0049 26.3054C17.3613 25.9903 16.778 25.5778 16.2769 25.0879L16.2755 25.0865L16.2639 25.0742C16.1002 24.9131 15.9448 24.7437 15.7992 24.5672C15.6498 24.3859 15.5102 24.1968 15.3814 24.0007C14.7179 22.9906 14.3326 21.7888 14.3326 20.5002V20.4978H14.3333C14.3337 19.6029 14.5198 18.7497 14.8551 17.9742C14.9093 17.8493 14.9681 17.7248 15.0311 17.6013C15.3527 16.9733 15.7747 16.4034 16.2765 15.9128L16.2769 15.9125L16.2765 15.9121L16.2779 15.9108C16.4441 15.7486 16.6216 15.593 16.8091 15.4452C16.9946 15.2991 17.1881 15.1626 17.3886 15.0367C18.423 14.3878 19.6527 14.0111 20.9705 14.0111ZM21.318 16.8128C21.2106 16.7998 21.1322 16.7068 21.1389 16.6014L21.318 16.8128ZM20.9705 6.94776H20.974V6.94845C22.2142 6.94879 23.4155 7.1082 24.5567 7.40616C24.7425 7.45473 24.9273 7.50707 25.1103 7.56317C26.0499 7.84984 26.9478 8.23298 27.7911 8.69992C27.8891 8.75432 27.9238 8.87644 27.8681 8.97223C27.8629 8.98044 27.8576 8.98899 27.8513 8.99651L27.8503 8.99754L26.3302 10.9036C26.2665 10.983 26.1534 11.0028 26.0667 10.9539L26.0618 10.9515C25.856 10.8465 25.6415 10.7449 25.4186 10.6491C25.1943 10.5523 24.9689 10.4634 24.7428 10.3826C23.5674 9.96325 22.2965 9.73439 20.9702 9.73439H20.9681V9.73371C19.4483 9.73371 18 10.0358 16.6824 10.5804C16.4746 10.6666 16.2632 10.762 16.0498 10.866L16.0337 10.8732C14.9758 11.3928 14.0142 12.0753 13.1831 12.8874L13.1817 12.8888L13.1736 12.8966C12.8983 13.1665 12.6368 13.4518 12.3915 13.7495C12.1441 14.0498 11.9121 14.3642 11.698 14.6902C10.5974 16.3657 9.9588 18.3601 9.9588 20.4998V20.5019H9.9581C9.9581 21.9876 10.2671 23.4038 10.8242 24.6914C10.9152 24.9021 11.0128 25.1088 11.1157 25.3099C11.6479 26.3502 12.3492 27.2957 13.1841 28.1119L13.1855 28.1133C13.4662 28.388 13.7605 28.6466 14.0656 28.8867C14.3729 29.1286 14.6945 29.3554 15.028 29.5648C16.7419 30.641 18.7824 31.2649 20.9709 31.2649H20.973V31.2656C22.4928 31.2656 23.9415 30.9639 25.259 30.4193C25.4746 30.33 25.6859 30.2349 25.8917 30.134C26.9558 29.6137 27.9231 28.9285 28.758 28.1119L28.7594 28.1106C29.0404 27.8359 29.3049 27.5485 29.5506 27.2502C29.798 26.9495 30.03 26.6355 30.2442 26.3091C31.3454 24.6333 31.9841 22.6389 31.9841 20.4998H31.9834V20.4947H31.9841C31.9841 19.8307 31.9218 19.1794 31.8035 18.5479C31.7856 18.4535 31.7646 18.3502 31.7405 18.2404C31.6261 17.7153 31.4724 17.2059 31.2845 16.716C31.2509 16.6281 31.2845 16.5316 31.3605 16.481L33.3421 14.9491C33.4307 14.8807 33.5588 14.8954 33.6284 14.982C33.6389 14.9953 33.6473 15.0087 33.6539 15.023L33.6557 15.0265L33.6571 15.0292L33.6574 15.0289C33.7607 15.2577 33.8601 15.4958 33.9549 15.7424C34.0483 15.986 34.1344 16.2306 34.2117 16.4755C34.6159 17.7478 34.8339 19.0993 34.8339 20.4995V20.5015H34.8329C34.8329 22.3717 34.4448 24.1543 33.7435 25.7748C33.6301 26.0372 33.507 26.2972 33.3757 26.5537C32.7042 27.8666 31.822 29.0571 30.7733 30.082L30.7715 30.0834L30.7638 30.0905C30.4146 30.4309 30.0472 30.7539 29.6629 31.0566C29.2759 31.3617 28.8714 31.6467 28.4522 31.9098C26.2931 33.2651 23.7249 34.0516 20.9702 34.0516H20.9681C19.055 34.0512 17.2315 33.6718 15.5735 32.9863C15.3051 32.8751 15.0392 32.7551 14.7767 32.6268C13.434 31.97 12.2159 31.1079 11.1671 30.0827L11.1657 30.0813L11.1559 30.071C10.8084 29.7307 10.4792 29.3722 10.1705 28.9972C9.85837 28.6189 9.56687 28.2234 9.29742 27.8136C7.91098 25.7033 7.10648 23.1924 7.10648 20.4998V20.4978H7.10718C7.10753 18.6276 7.49596 16.845 8.19722 15.2242C8.3106 14.9618 8.43343 14.7018 8.56466 14.4453C9.23583 13.1334 10.118 11.9432 11.1668 10.9177L11.1671 10.9173L11.1668 10.917L11.1682 10.9156L11.1773 10.9074C11.5258 10.567 11.8932 10.2448 12.2768 9.94272C12.6641 9.63758 13.0683 9.35262 13.4875 9.08956C15.6473 7.73422 18.2162 6.94776 20.9705 6.94776Z" fill="white"/>
</g>
<defs>
<clipPath id="clip0_321_1491">
<rect width="43" height="41" fill="white"/>
</clipPath>
</defs>
</svg>
